<?xml version="1.0" standalone="no"?>
<!DOCTYPE svg PUBLIC "-//W3C//DTD SVG 20010904//EN"
 "http://www.w3.org/TR/2001/REC-SVG-20010904/DTD/svg10.dtd">
<svg version="1.0" xmlns="http://www.w3.org/2000/svg"
 width="1422.000000pt" height="859.000000pt" viewBox="0 0 1422.000000 859.000000"
 preserveAspectRatio="xMidYMid meet">

<g transform="translate(0.000000,859.000000) scale(0.100000,-0.100000)"
fill="#000000" stroke="none">
<path d="M6796 7656 c-89 -198 -244 -444 -296 -471 -71 -37 -106 -19 -243 129
-125 134 -239 216 -368 266 -288 111 -592 89 -854 -64 -100 -59 -257 -218
-314 -320 -157 -277 -217 -710 -156 -1111 29 -188 101 -431 190 -637 29 -68
41 -87 60 -90 23 -5 23 -4 -13 76 -59 135 -150 414 -176 541 -107 516 -22
1037 217 1325 102 124 280 237 444 282 116 32 364 32 478 0 185 -53 343 -156
484 -318 140 -161 225 -176 332 -56 42 46 176 272 235 395 35 71 52 76 21 5
-13 -29 -185 -422 -382 -873 -197 -451 -361 -823 -364 -827 -4 -4 1 38 10 95
47 277 58 611 26 799 -36 212 -109 378 -216 491 -193 204 -459 243 -721 106
-143 -75 -227 -173 -277 -322 -24 -73 -27 -97 -27 -227 -1 -165 9 -222 84
-480 58 -197 156 -472 240 -668 74 -175 227 -482 239 -482 5 0 17 -3 25 -6 10
-4 -25 78 -93 215 -156 315 -298 682 -386 996 -53 192 -66 263 -72 385 -9 206
37 343 156 460 151 149 392 210 576 145 382 -135 528 -614 415 -1358 -11 -71
-32 -181 -46 -245 -33 -144 -33 -145 -13 -150 13 -2 112 216 453 995 240 549
436 1003 436 1009 0 5 -15 24 -33 42 l-33 32 -38 -84z"/>
<path d="M7012 7663 c-6 -10 -42 -94 -82 -188 -40 -93 -74 -173 -76 -177 -3
-4 16 0 42 9 122 41 273 -11 413 -143 44 -41 82 -70 85 -65 3 5 35 77 71 160
l65 152 -21 41 c-12 23 -44 66 -73 96 -85 90 -190 132 -333 132 -68 0 -84 -3
-91 -17z"/>
<path d="M9918 7377 c-24 -11 -2648 -2247 -2706 -2307 -15 -15 -65 -58 -112
-96 -210 -169 -824 -701 -841 -728 -24 -39 -24 -103 0 -141 37 -62 283 -341
314 -357 40 -21 89 -23 127 -3 35 18 3602 3062 3642 3108 36 40 45 90 27 139
-17 45 -277 351 -322 378 -36 22 -89 25 -129 7z m19 -229 c22 -24 84 -94 137
-157 84 -100 96 -118 96 -152 0 -20 -3 -45 -6 -54 -10 -25 -391 -345 -422
-354 -56 -17 -87 6 -218 159 -132 155 -150 190 -123 239 8 14 82 84 164 155
237 203 241 206 289 206 36 0 47 -6 83 -42z m-700 -509 c18 -6 60 -44 104 -97
189 -221 189 -221 189 -260 0 -20 -8 -47 -18 -58 -15 -19 -363 -319 -477 -412
-41 -34 -77 -40 -117 -21 -13 6 -80 79 -150 161 -119 140 -128 154 -128 192 0
36 6 47 43 83 76 72 458 395 485 409 32 17 31 17 69 3z m-691 -671 c101 -106
233 -269 238 -296 4 -16 2 -40 -3 -55 -9 -24 -472 -431 -519 -456 -30 -16 -63
-13 -94 7 -33 20 -243 263 -265 306 -29 55 -8 89 124 201 412 352 390 335 436
335 37 0 48 -6 83 -42z m-782 -594 c15 -6 199 -215 254 -288 32 -43 30 -98 -5
-135 -26 -27 -298 -260 -441 -379 -65 -53 -101 -64 -142 -42 -22 12 -250 273
-268 307 -13 24 -16 62 -6 87 6 15 448 401 504 439 25 17 75 22 104 11z m-743
-647 c8 -7 72 -79 142 -161 107 -125 127 -154 127 -181 0 -19 -3 -41 -6 -50
-4 -8 -112 -106 -241 -215 -238 -203 -255 -214 -306 -194 -14 5 -78 77 -230
257 -59 70 -70 104 -47 148 9 16 354 317 444 387 32 24 91 29 117 9z"/>
<path d="M6915 7270 c-19 -8 -19 -9 5 -16 14 -4 69 -29 122 -56 107 -55 200
-133 254 -212 19 -28 34 -48 34 -45 0 4 11 32 25 63 14 32 22 55 17 52 -5 -3
-31 18 -58 45 -69 72 -163 136 -230 159 -59 21 -134 25 -169 10z"/>
<path d="M6783 7133 l-41 -98 136 -6 c132 -6 222 -22 325 -55 27 -9 51 -14 54
-11 10 11 -92 108 -161 155 -73 48 -215 112 -251 112 -17 0 -29 -19 -62 -97z"/>
<path d="M6913 6868 c67 -68 151 -164 187 -215 35 -51 65 -91 66 -90 8 9 134
314 134 323 0 29 -309 104 -432 104 l-76 0 121 -122z"/>
<path d="M6712 6963 c-5 -10 -193 -448 -416 -973 -224 -525 -414 -969 -421
-986 -8 -16 -44 -99 -80 -183 -36 -84 -69 -160 -74 -169 -7 -12 -16 6 -36 73
-63 209 -161 429 -195 438 -18 5 -20 2 -14 -16 4 -12 17 -43 30 -69 13 -25 41
-91 63 -145 223 -563 270 -1202 135 -1873 -110 -548 -325 -958 -698 -1334
-492 -494 -1157 -821 -1866 -918 -148 -20 -579 -17 -710 5 -344 58 -591 139
-875 286 -558 289 -960 751 -1158 1332 -116 339 -157 808 -102 1164 61 396
245 771 547 1121 109 127 346 344 374 344 5 0 22 -23 37 -52 l29 -51 -79 -71
c-231 -208 -383 -410 -513 -680 -97 -199 -149 -366 -191 -603 -31 -171 -33
-510 -6 -678 99 -605 408 -1140 867 -1501 301 -237 748 -420 1160 -475 153
-20 479 -15 647 10 821 124 1555 586 1970 1241 188 296 310 652 357 1040 17
144 13 475 -8 615 -52 349 -137 571 -375 985 -61 107 -143 256 -182 332 -54
107 -74 138 -89 138 -11 0 -20 -2 -20 -5 0 -16 144 -288 250 -475 208 -364
281 -531 340 -780 l20 -85 -235 -550 c-129 -302 -369 -865 -534 -1249 l-298
-699 -94 -60 c-131 -82 -382 -205 -532 -260 -608 -224 -1224 -228 -1775 -11
-390 154 -693 373 -935 676 -654 819 -689 1930 -87 2733 87 115 218 254 314
330 41 33 75 64 75 68 1 12 -92 177 -99 177 -19 0 -160 -118 -274 -229 -333
-326 -561 -705 -661 -1100 -78 -307 -85 -690 -20 -1046 187 -1019 999 -1778
2105 -1966 177 -30 532 -37 725 -15 343 40 744 155 1019 293 37 19 70 32 72
30 2 -2 -7 -30 -21 -61 l-26 -58 21 -32 c28 -46 119 -130 166 -154 22 -11 65
-28 96 -37 60 -17 215 -23 227 -9 5 5 58 126 119 269 322 755 321 754 401 846
310 356 492 767 586 1322 14 82 25 158 25 169 0 16 564 1347 675 1593 18 39
177 408 355 822 l322 752 -27 46 c-65 112 -266 335 -366 405 -26 20 -28 20
-37 3z"/>
<path d="M6196 3474 c-203 -443 -322 -766 -409 -1114 -26 -106 -31 -144 -32
-250 0 -117 2 -129 27 -181 16 -31 36 -63 47 -73 10 -9 68 -30 128 -46 61 -16
118 -32 127 -36 13 -5 16 1 16 29 0 20 7 43 16 51 20 20 68 20 88 0 20 -20 21
-72 1 -94 -14 -16 -2 -20 162 -63 277 -72 492 -117 673 -141 l46 -7 -4 39 c-5
47 16 72 58 72 42 0 63 -26 58 -72 -2 -21 -1 -38 1 -38 3 0 25 7 48 16 43 17
43 17 23 36 -49 46 -28 118 35 118 41 0 70 -35 63 -75 -3 -14 -2 -25 1 -25 3
0 33 16 66 35 57 33 58 34 29 35 -38 0 -57 21 -57 62 0 34 32 68 64 68 49 0
76 -74 42 -114 -16 -18 -14 -17 22 4 102 60 193 131 287 221 88 86 98 99 76
99 -57 0 -78 73 -32 109 35 27 49 26 81 -5 17 -17 24 -33 21 -49 l-5 -24 34
26 c37 29 38 31 18 57 -22 29 -18 59 9 85 32 30 70 22 94 -18 17 -28 18 -29
40 -12 l23 17 -20 19 c-42 37 -13 115 43 115 25 0 66 -41 66 -66 0 -18 10 -18
38 2 20 14 21 17 7 37 -8 12 -15 29 -15 38 0 26 39 69 64 69 26 0 66 -38 66
-63 0 -21 11 -21 58 -1 24 11 32 18 22 21 -41 14 -54 78 -21 107 12 11 31 16
52 14 43 -4 65 -42 49 -83 -10 -27 -10 -27 27 -20 52 9 55 13 33 35 -41 41
-13 110 45 110 57 0 82 -55 47 -101 -13 -18 -32 -109 -70 -339 -87 -532 -98
-644 -82 -808 20 -207 59 -302 169 -413 109 -109 183 -143 377 -175 82 -13
159 -26 172 -29 20 -5 22 -3 16 20 -16 66 75 106 113 49 14 -22 15 -31 5 -57
-6 -17 -11 -32 -9 -33 4 -4 514 -74 647 -89 201 -23 432 -30 515 -16 39 6 121
28 183 47 105 34 112 37 93 51 -12 8 -21 25 -21 38 l0 25 -57 -26 c-49 -22
-67 -25 -115 -19 -164 18 -324 92 -438 202 -65 64 -73 75 -60 87 44 44 425
306 443 306 34 -1 211 -74 286 -119 80 -47 171 -127 202 -177 l22 -36 -41 -41
-41 -42 29 -17 c23 -13 30 -24 30 -48 0 -16 3 -30 8 -30 16 0 86 49 70 50 -21
0 -48 37 -48 67 0 29 33 63 60 63 29 0 73 -46 67 -71 -3 -10 -3 -19 0 -19 5 0
103 70 103 74 0 1 -10 2 -21 3 -80 6 -74 123 6 123 39 0 71 -36 62 -70 -7 -27
-2 -26 50 17 l45 37 -30 8 c-53 14 -64 89 -18 120 43 29 103 -15 93 -68 -4
-23 0 -21 44 22 27 27 49 48 49 49 0 0 -11 1 -25 1 -38 3 -55 22 -55 63 0 45
14 61 55 61 41 0 56 -12 63 -49 l7 -32 50 51 50 50 -32 -6 c-24 -5 -36 -1 -52
15 -41 41 -16 111 40 111 37 0 51 -14 58 -56 l6 -39 97 119 c54 66 116 145
138 177 l41 58 -38 24 c-21 13 -52 32 -69 42 l-31 18 -70 -73 -70 -73 -274
153 -274 154 42 64 c24 35 43 70 43 77 0 7 2 19 5 27 3 8 -7 21 -25 31 l-30
18 0 -29 c0 -73 -107 -86 -124 -16 -5 20 -1 35 15 57 17 24 19 31 8 38 -8 5
-17 9 -20 9 -4 0 -30 -40 -59 -89 -178 -304 -521 -631 -960 -917 -58 -37 -128
-86 -157 -107 -48 -35 -56 -38 -95 -32 -24 3 -50 8 -58 11 -12 3 -15 -4 -12
-34 6 -64 -44 -93 -96 -56 -32 22 -30 76 3 102 23 19 24 21 7 26 -31 10 -101
87 -127 141 -43 86 -43 135 -2 271 51 168 84 305 107 440 25 143 25 136 -5
122 -19 -8 -31 -8 -50 0 -61 28 -52 114 13 120 18 2 40 -2 48 -9 12 -10 14 -3
14 45 0 57 -8 68 -30 41 -14 -17 -48 -19 -70 -5 -18 11 -28 -9 -29 -56 -1 -37
-38 -161 -50 -168 -9 -6 -310 61 -456 100 -116 32 -231 93 -227 120 9 48 120
516 124 520 11 10 317 -71 372 -98 111 -56 197 -162 227 -281 10 -43 13 -46
28 -33 9 8 27 16 40 18 23 3 15 13 -81 118 -128 141 -250 257 -427 409 -75 63
-181 159 -236 212 -128 124 -229 194 -304 211 -32 7 -112 12 -186 11 -146 -1
-258 -24 -407 -85 -168 -69 -271 -140 -540 -373 -177 -152 -184 -160 -154
-163 79 -8 75 -125 -4 -125 -41 0 -63 26 -58 70 l4 31 -27 -21 c-15 -12 -104
-87 -197 -167 -159 -135 -169 -145 -142 -148 31 -3 60 -34 60 -65 0 -22 -43
-67 -65 -67 -28 0 -68 48 -62 76 2 13 2 24 0 24 -2 0 -27 -19 -55 -42 l-50
-43 33 -5 c60 -9 80 -93 28 -121 -50 -26 -112 28 -92 81 10 26 7 25 -58 -22
-38 -28 -69 -51 -69 -52 0 -2 14 -1 30 2 61 9 94 -64 49 -109 -27 -27 -66 -21
-92 13 -16 22 -18 31 -9 57 l11 31 -59 -40 c-70 -47 -92 -50 -118 -12 -45 64
-46 72 -43 735 l3 629 -27 -18 c-21 -14 -31 -15 -51 -6 -60 28 -50 114 14 120
18 2 40 -2 48 -9 12 -10 14 9 14 135 0 80 -1 146 -3 146 -1 0 -73 -156 -161
-346z m78 -80 c24 -24 20 -80 -6 -98 -12 -9 -30 -16 -40 -16 -27 0 -58 37 -58
69 0 37 23 61 60 61 16 0 36 -7 44 -16z m2406 -84 c40 -40 11 -110 -45 -110
-32 0 -65 33 -65 65 0 32 33 65 65 65 14 0 34 -9 45 -20z m-2333 -57 c-4 -38
-7 -96 -7 -130 l0 -61 -62 14 c-34 8 -64 16 -66 19 -7 6 78 179 100 202 35 37
41 29 35 -44z m2165 50 c38 -34 8 -113 -44 -113 -50 0 -79 77 -42 114 20 21
63 20 86 -1z m-177 -39 c26 -26 16 -85 -17 -104 -25 -13 -31 -13 -55 0 -35 19
-43 72 -17 101 21 23 67 25 89 3z m-2137 -30 c26 -18 30 -74 6 -98 -38 -39
-104 -7 -104 50 0 34 28 64 60 64 9 0 26 -7 38 -16z m1962 -24 c40 -40 11
-110 -45 -110 -32 0 -65 33 -65 65 0 32 33 65 65 65 14 0 34 -9 45 -20z m562
-59 c31 -14 50 -32 58 -52 18 -43 6 -248 -22 -383 l-23 -110 -53 -13 c-52 -13
-56 -13 -97 11 -80 47 -201 208 -309 408 l-47 87 38 20 c88 44 173 60 309 57
80 -2 110 -7 146 -25z m184 3 c20 -19 24 -31 19 -52 -10 -39 -24 -52 -58 -52
-61 0 -90 67 -47 110 27 27 56 25 86 -6z m-914 -11 c18 -16 24 -59 10 -79 -15
-23 -50 -34 -77 -24 -41 16 -53 68 -22 108 14 17 67 15 89 -5z m-1853 -89 c8
-7 14 -28 14 -46 0 -18 2 -27 5 -20 6 18 16 15 97 -30 l75 -42 0 -273 0 -273
-66 25 c-96 36 -185 86 -207 117 -20 26 -20 29 -4 112 14 71 66 256 93 331 6
16 5 18 -7 8 -18 -18 -74 -16 -93 3 -17 16 -21 61 -8 80 22 33 71 37 101 8z
m1691 -4 c40 -40 14 -110 -41 -110 -31 0 -69 30 -69 56 0 19 19 56 34 66 20
14 56 8 76 -12z m1205 -62 c35 -29 62 -54 60 -56 -3 -3 -115 24 -120 30 -6 8
-15 78 -10 78 4 0 35 -24 70 -52z m-95 2 c39 -39 14 -110 -39 -110 -59 0 -87
57 -51 103 26 32 62 35 90 7z m-867 -57 c195 -176 377 -372 377 -407 0 -6 -57
-43 -127 -80 -149 -80 -290 -166 -333 -202 l-30 -25 -97 73 c-158 118 -379
350 -353 371 21 17 497 317 503 317 4 0 31 -21 60 -47z m-405 21 c26 -18 30
-74 6 -98 -38 -39 -104 -7 -104 50 0 34 28 64 60 64 9 0 26 -7 38 -16z m-1598
-64 c55 -55 -11 -137 -80 -100 -35 19 -33 88 4 112 20 14 56 8 76 -12z m1450
-50 c24 -24 26 -67 3 -92 -31 -35 -101 -15 -104 30 -5 71 55 108 101 62z
m1422 -37 c50 -45 -12 -135 -71 -103 -41 21 -49 70 -19 108 15 17 68 15 90 -5z
m-2927 -87 c27 -19 24 -74 -4 -98 -30 -23 -56 -23 -81 2 -40 40 -15 110 40
110 14 0 35 -6 45 -14z m2898 -78 c27 -22 31 -61 7 -91 -54 -68 -144 10 -94
81 17 25 60 30 87 10z m-1671 -35 c22 -20 23 -70 1 -95 -36 -40 -103 -10 -103
45 0 58 60 88 102 50z m-1278 -69 c38 -38 11 -114 -41 -114 -52 0 -82 72 -46
112 20 22 66 24 87 2z m1464 -66 c191 -128 382 -293 382 -331 0 -11 -234 -205
-333 -276 -17 -12 -28 -10 -96 19 -182 79 -370 215 -401 291 -11 27 -11 33 2
40 83 47 300 223 338 274 14 19 26 35 28 35 2 0 38 -23 80 -52z m-318 10 c40
-44 14 -108 -45 -108 -37 0 -65 28 -65 65 0 29 36 65 65 65 13 0 33 -10 45
-22z m1765 -33 c29 -28 31 -51 9 -83 -32 -46 -114 -17 -114 41 0 22 43 67 65
67 9 0 27 -11 40 -25z m-2941 -91 c22 -22 20 -70 -4 -94 -24 -24 -48 -25 -78
-4 -24 17 -30 61 -12 95 13 24 72 26 94 3z m221 -34 c82 -17 150 -32 152 -34
3 -2 12 -35 20 -73 17 -75 35 -117 66 -150 l20 -22 -24 -10 c-13 -5 -78 -35
-144 -66 -103 -49 -126 -56 -163 -52 -67 7 -105 53 -138 165 -3 11 -7 10 -20
-2 -20 -21 -68 -20 -89 0 -26 26 -16 85 18 104 25 14 30 13 56 -1 l28 -17 6
52 c6 62 34 136 52 136 6 0 79 -14 160 -30z m2684 -61 c29 -52 -14 -110 -72
-95 -46 11 -58 102 -15 119 31 13 73 2 87 -24z m-45 -170 c48 -38 23 -109 -39
-109 -61 0 -85 61 -40 105 29 30 45 31 79 4z m-2266 -71 c26 -54 -30 -114 -81
-87 -28 15 -37 28 -37 58 0 62 91 85 118 29z m386 -34 c222 -89 386 -178 386
-209 0 -15 -331 -175 -362 -175 -45 0 -314 50 -403 76 -133 37 -235 87 -235
116 0 4 5 8 12 8 28 0 375 180 402 209 17 17 36 31 45 31 8 0 78 -25 155 -56z
m2066 46 c132 -16 265 -56 385 -114 147 -71 157 -80 146 -131 -5 -22 -12 -57
-15 -77 l-7 -37 30 15 c26 13 35 13 58 2 22 -10 29 -21 31 -49 4 -44 -17 -69
-58 -69 -32 0 -60 22 -61 48 -1 24 -15 -23 -23 -83 -7 -43 -6 -47 7 -36 26 21
80 10 95 -21 26 -55 -28 -111 -83 -86 -14 6 -25 15 -25 20 0 4 -4 8 -8 8 -4 0
-13 -30 -19 -66 -6 -36 -14 -68 -17 -72 -4 -3 -66 -7 -139 -10 -153 -5 -283
13 -411 56 l-81 27 1 165 c1 164 10 266 40 433 18 100 7 95 154 77z m724 -12
c22 -31 20 -64 -4 -88 -27 -27 -56 -25 -86 6 -20 19 -24 31 -19 52 10 40 24
52 61 52 23 0 38 -7 48 -22z m1480 7 c31 -31 27 -84 -8 -107 -39 -27 -96 9
-96 59 0 50 70 82 104 48z m-3385 -26 c29 -52 -14 -110 -72 -95 -33 8 -53 56
-36 88 17 32 29 39 64 36 20 -2 34 -12 44 -29z m-1841 -2 c23 -27 24 -62 2
-90 -54 -68 -144 10 -94 81 17 25 74 31 92 9z m396 -69 c22 -30 20 -60 -4 -86
-28 -30 -64 -28 -89 4 -25 32 -26 52 -5 82 10 15 25 22 49 22 24 0 39 -7 49
-22z m1294 -30 c15 -13 16 -80 0 -96 -17 -17 -74 -15 -92 4 -30 29 -15 93 24
107 18 6 50 -1 68 -15z m1130 -10 c25 -54 -22 -107 -78 -86 -30 11 -40 25 -40
60 0 39 26 60 69 56 27 -2 39 -9 49 -30z m2302 2 c40 -40 15 -110 -41 -110
-37 0 -59 24 -59 65 0 57 60 85 100 45z m443 -158 c147 -90 267 -168 267 -174
0 -38 -244 -299 -363 -388 l-58 -43 -86 17 c-104 20 -185 54 -278 113 -75 49
-194 148 -202 169 -5 13 436 477 448 471 3 -1 125 -75 272 -165z m-1873 118
c40 -40 11 -110 -45 -110 -32 0 -65 33 -65 65 0 32 33 65 65 65 14 0 34 -9 45
-20z m-927 -101 c12 -7 25 -17 29 -23 13 -19 9 -59 -9 -78 -20 -22 -76 -24
-93 -2 -21 25 -16 75 9 96 27 21 35 22 64 7z m2229 -6 c22 -20 23 -70 1 -95
-20 -22 -61 -23 -85 -1 -22 20 -24 76 -2 97 20 21 63 20 86 -1z m1052 -39 c20
-19 21 -64 2 -89 -15 -21 -67 -25 -90 -5 -18 14 -21 62 -6 91 13 24 72 26 94
3z m-1180 -80 c35 -35 9 -114 -38 -114 -57 0 -88 69 -49 112 20 22 66 24 87 2z
m1086 -64 c40 -40 11 -110 -45 -110 -32 0 -65 33 -65 65 0 32 33 65 65 65 14
0 34 -9 45 -20z m-3176 -12 c22 -31 20 -64 -4 -88 -55 -55 -139 19 -96 85 22
33 78 35 100 3z m1950 -53 c31 -31 27 -84 -8 -107 -39 -27 -96 9 -96 59 0 50
70 82 104 48z m-1938 -121 c22 -32 10 -72 -27 -93 -24 -13 -29 -13 -53 2 -57
38 -37 117 29 117 26 0 39 -6 51 -26z m1804 -14 c41 -41 13 -110 -45 -110 -59
0 -85 64 -45 108 26 27 64 28 90 2z m-972 -62 c23 -48 -21 -108 -68 -93 -78
25 -61 130 19 123 27 -2 39 -9 49 -30z m827 -53 c45 -44 21 -105 -40 -105 -62
0 -87 71 -39 109 34 27 50 26 79 -4z m-1646 -71 c25 -32 26 -52 5 -82 -10 -15
-25 -22 -49 -22 -58 0 -86 69 -45 110 28 28 64 25 89 -6z m905 -5 c50 -39 24
-109 -40 -109 -67 0 -85 86 -24 117 33 17 33 16 64 -8z m-284 -20 c70 -15 103
-31 165 -84 58 -49 79 -61 149 -84 l50 -18 -74 -36 c-111 -54 -186 -71 -320
-71 -206 0 -353 68 -451 211 l-29 42 67 21 c38 11 95 24 128 30 73 11 240 5
315 -11z m878 -1 c7 -7 12 -29 12 -50 0 -46 -32 -73 -74 -62 -45 11 -63 76
-30 108 18 19 75 21 92 4z m-156 -95 c24 -21 23 -68 -2 -93 -25 -25 -51 -25
-81 -2 -25 21 -30 71 -9 96 17 21 69 20 92 -1z m-1252 -33 c35 -19 33 -88 -4
-112 -35 -24 -96 11 -96 55 0 53 51 83 100 57z m1092 -57 c54 -49 -16 -139
-77 -99 -54 36 -35 116 27 116 17 0 40 -7 50 -17z m-939 -74 c31 -43 2 -99
-53 -99 -54 0 -79 71 -39 111 27 27 66 21 92 -12z m775 -21 c26 -54 -30 -114
-81 -87 -28 15 -37 28 -37 58 0 62 91 85 118 29z m-628 -18 c39 -39 14 -110
-39 -110 -59 0 -87 57 -51 103 26 32 62 35 90 7z m943 -69 c130 -65 235 -137
261 -176 10 -15 16 -28 14 -29 -8 -6 -277 16 -423 34 -154 20 -332 55 -347 69
-5 4 36 19 90 34 110 31 223 81 248 108 9 11 23 19 29 19 7 0 64 -26 128 -59z
m-491 32 c22 -20 23 -70 1 -95 -20 -22 -61 -23 -85 -1 -22 20 -24 76 -2 97 20
21 63 20 86 -1z"/>
<path d="M11935 2917 c-71 -32 -108 -114 -86 -187 15 -52 57 -84 142 -112 81
-26 119 -55 119 -93 0 -41 -17 -63 -59 -76 -32 -9 -44 -8 -74 6 -35 16 -84 64
-119 115 -17 25 -17 24 -17 -40 -1 -36 3 -69 7 -75 7 -10 27 -13 154 -17 64
-3 81 0 104 18 64 47 89 124 64 198 -15 46 -48 72 -126 96 -90 27 -123 47
-130 76 -14 55 37 102 97 89 39 -9 77 -41 110 -94 l29 -45 0 70 0 69 -32 1
c-18 0 -60 4 -93 8 -43 4 -69 2 -90 -7z"/>
<path d="M10208 2913 l22 -4 0 -229 0 -229 -22 -4 c-13 -2 36 -4 107 -4 72 0
111 2 88 4 l-43 4 0 105 c0 103 0 104 24 104 41 0 57 -11 76 -54 l19 -41 0
110 c0 107 0 109 -15 75 -22 -50 -43 -70 -76 -70 l-28 0 0 116 0 117 43 -7
c51 -8 84 -31 108 -75 27 -51 29 -49 29 22 l0 67 -177 -1 c-98 -1 -168 -4
-155 -6z"/>
<path d="M10608 2913 l22 -4 0 -229 0 -229 -22 -4 c-13 -2 27 -4 87 -4 61 0
100 2 88 4 l-23 4 0 229 0 229 23 4 c12 2 -27 4 -88 4 -60 0 -100 -2 -87 -4z"/>
<path d="M10858 2913 l22 -4 0 -229 0 -229 -22 -4 c-13 -2 59 -5 158 -6 l181
-1 7 76 c4 42 5 78 3 80 -2 2 -19 -20 -38 -48 -41 -62 -72 -87 -122 -95 l-37
-6 0 231 0 231 38 4 c20 2 -19 4 -88 4 -69 0 -115 -2 -102 -4z"/>
<path d="M11263 2913 c16 -4 17 -24 17 -233 0 -209 -1 -229 -17 -233 -10 -3 5
-5 32 -4 28 0 40 2 28 4 l-23 4 1 217 1 217 38 -135 c22 -74 49 -174 62 -222
l23 -88 42 0 c31 0 43 4 47 18 2 9 26 107 51 217 26 110 49 202 51 204 2 2 4
-93 4 -212 l0 -216 -22 -4 c-13 -2 27 -4 87 -4 61 0 100 2 88 4 l-23 4 0 229
0 229 23 4 c12 3 -21 4 -73 3 l-94 -1 -40 -172 c-22 -95 -41 -171 -44 -169 -3
3 -92 334 -92 344 0 1 -42 1 -92 1 -51 -1 -85 -3 -75 -6z"/>
<path d="M10939 774 c-44 -29 -45 -32 -27 -43 15 -9 19 -20 16 -41 -4 -29 -4
-29 27 -16 17 8 44 20 60 28 28 15 28 16 7 22 -20 7 -25 16 -34 66 -2 12 -13
9 -49 -16z"/>
</g>
</svg>
